<svg version="1.1" id="Layer_1"
 xmlns="http://www.w3.org/2000/svg"
 xmlns:xlink="http://www.w3.org/1999/xlink" 
 x="0px" y="0px"
	 width="100%" viewBox="0 0 65 84" 
	 enable-background="new 0 0 65 84"
	  xml:space="preserve">
<path fill="#000000" opacity="1.000000" stroke="none" 
	d="
M2.000000,1.000000 
	C23.266928,1.000000 44.533855,1.000000 66.000000,1.000000 
	C66.000000,26.353880 66.000000,51.708282 65.686470,77.838387 
	C63.433273,77.876656 61.493610,77.139221 59.347679,76.323364 
	C63.181198,75.693573 65.324867,73.027557 63.784729,70.090302 
	C61.101269,64.972588 56.819843,69.539116 54.135387,69.517792 
	C53.513130,67.132858 53.609035,64.127380 52.263756,63.189819 
	C50.544380,61.991543 47.662464,62.461365 45.315567,62.215847 
	C46.882679,55.813995 41.244713,41.822872 31.381367,38.028008 
	C14.406342,31.496960 4.737171,18.942446 2.000000,1.000000 
z"/>
<path fill="#FFFFFF" opacity="1.000000" stroke="none" 
	d="
M1.500000,1.000000 
	C4.737171,18.942446 14.406342,31.496960 31.381367,38.028008 
	C41.244713,41.822872 46.882679,55.813995 45.315567,62.215847 
	C47.662464,62.461365 50.544380,61.991543 52.263756,63.189819 
	C53.609035,64.127380 53.513130,67.132858 54.135387,69.517792 
	C56.819843,69.539116 61.101269,64.972588 63.784729,70.090302 
	C65.324867,73.027557 63.181198,75.693573 59.347679,76.323364 
	C61.493610,77.139221 63.433273,77.876656 65.686470,78.307045 
	C66.000000,80.310402 66.000000,82.620804 66.000000,85.000000 
	C53.645844,85.000000 41.291580,85.000000 28.763096,84.674164 
	C28.120121,83.912796 27.711857,83.200417 27.173635,83.082825 
	C17.494511,80.967987 11.082752,74.736488 5.880820,66.734039 
	C4.828791,65.115646 2.656057,64.225754 1.000000,63.000000 
	C1.000000,42.333332 1.000000,21.666666 1.500000,1.000000 
M43.220936,63.965843 
	C43.327759,63.839336 43.458420,63.725018 43.531822,63.581429 
	C43.571285,63.504223 43.515114,63.285435 43.497684,63.284935 
	C39.965347,63.184025 38.255142,60.916031 36.479309,58.157536 
	C34.534641,55.136784 32.258327,51.943283 29.337862,50.027115 
	C24.910656,47.122353 20.738382,49.498398 21.321209,54.449253 
	C21.987694,60.110748 23.744209,65.624741 28.166996,69.598419 
	C33.078213,67.695595 37.776299,65.875351 43.220936,63.965843 
z"/>
<path fill="#000000" opacity="1.000000" stroke="none" 
	d="
M1.000000,63.468781 
	C2.656057,64.225754 4.828791,65.115646 5.880820,66.734039 
	C11.082752,74.736488 17.494511,80.967987 27.173635,83.082825 
	C27.711857,83.200417 28.120121,83.912796 28.294437,84.674164 
	C19.081198,85.000000 10.162395,85.000000 1.000000,85.000000 
	C1.000000,77.981056 1.000000,70.959312 1.000000,63.468781 
z"/>
<path fill="#000000" opacity="1.000000" stroke="none" 
	d="
M42.847656,64.010475 
	C37.776299,65.875351 33.078213,67.695595 28.166996,69.598419 
	C23.744209,65.624741 21.987694,60.110748 21.321209,54.449253 
	C20.738382,49.498398 24.910656,47.122353 29.337862,50.027115 
	C32.258327,51.943283 34.534641,55.136784 36.479309,58.157536 
	C38.255142,60.916031 39.965347,63.184025 43.497684,63.284935 
	C43.515114,63.285435 43.571285,63.504223 43.531822,63.581429 
	C43.458420,63.725018 43.327759,63.839336 42.847656,64.010475 
z"/>
</svg>