<svg version="1.1" id="Layer_1" xmlns="http://www.w3.org/2000/svg" xmlns:xlink="http://www.w3.org/1999/xlink" x="0px" y="0px"
	 width="100%" viewBox="0 0 65 84" enable-background="new 0 0 65 84" xml:space="preserve">
<path fill="#000000" opacity="1.000000" stroke="none" 
	d="
M65.000000,85.000000 
	C43.733067,85.000000 22.466135,85.000000 1.000000,85.000000 
	C1.000000,59.646118 1.000000,34.291718 1.344076,8.168059 
	C4.282229,8.165473 6.876306,8.932143 9.388713,9.674676 
	C4.922455,10.105465 1.462272,11.833727 3.468208,18.140249 
	C6.803867,17.859795 10.279244,17.567591 12.887222,17.348316 
	C13.312429,19.491127 13.134912,22.609343 14.196900,23.112761 
	C16.405701,24.159809 19.271141,23.821644 21.383451,24.009760 
	C21.573118,25.863413 21.553944,28.006586 22.041155,30.027689 
	C23.982378,38.080467 27.308405,44.731205 35.902260,48.209251 
	C41.604465,50.517006 46.922211,54.330456 51.651726,58.361889 
	C59.716846,65.236580 63.182922,74.794914 65.000000,85.000000 
z"/>
<path fill="#FFFFFF" opacity="1.000000" stroke="none" 
	d="
M65.500000,85.000000 
	C63.182922,74.794914 59.716846,65.236580 51.651726,58.361889 
	C46.922211,54.330456 41.604465,50.517006 35.902260,48.209251 
	C27.308405,44.731205 23.982378,38.080467 22.041155,30.027689 
	C21.553944,28.006586 21.573118,25.863413 21.383451,24.009760 
	C19.271141,23.821644 16.405701,24.159809 14.196900,23.112761 
	C13.134912,22.609343 13.312429,19.491127 12.887222,17.348316 
	C10.279244,17.567591 6.803867,17.859795 3.468208,18.140249 
	C1.462272,11.833727 4.922455,10.105465 9.388713,9.674676 
	C6.876306,8.932143 4.282229,8.165473 1.344076,7.699402 
	C1.000000,5.690125 1.000000,3.380249 1.000000,1.000000 
	C13.020820,1.000000 25.041752,1.000000 37.236893,1.325984 
	C38.206779,2.105075 38.958839,2.673753 39.804996,2.993101 
	C46.901005,5.671215 53.685650,8.598212 58.107368,15.429099 
	C60.187492,18.642574 63.335762,21.164627 66.000000,24.000000 
	C66.000000,44.333332 66.000000,64.666664 65.500000,85.000000 
M26.569235,20.918024 
	C25.473719,21.415480 24.378204,21.912935 24.183926,22.001154 
	C25.940128,23.655478 27.962498,25.270470 29.625496,27.195860 
	C32.046593,29.998962 33.886143,33.390747 36.616570,35.804165 
	C37.999638,37.026657 41.429047,37.627426 42.777763,36.744385 
	C44.286526,35.756565 45.534275,32.490566 45.057732,30.707039 
	C43.699814,25.624857 41.407833,20.792248 39.832939,16.757034 
	C34.743336,18.195822 30.932827,19.273018 26.569235,20.918024 
z"/>
<path fill="#000000" opacity="1.000000" stroke="none" 
	d="
M66.000000,23.531261 
	C63.335762,21.164627 60.187492,18.642574 58.107368,15.429099 
	C53.685650,8.598212 46.901005,5.671215 39.804996,2.993101 
	C38.958839,2.673753 38.206779,2.105075 37.705551,1.325984 
	C47.252483,1.000000 56.504963,1.000000 66.000000,1.000000 
	C66.000000,8.352405 66.000000,15.707466 66.000000,23.531261 
z"/>
<path fill="#000000" opacity="1.000000" stroke="none" 
	d="
M26.845776,20.634121 
	C30.932827,19.273018 34.743336,18.195822 39.832939,16.757034 
	C41.407833,20.792248 43.699814,25.624857 45.057732,30.707039 
	C45.534275,32.490566 44.286526,35.756565 42.777763,36.744385 
	C41.429047,37.627426 37.999638,37.026657 36.616570,35.804165 
	C33.886143,33.390747 32.046593,29.998962 29.625496,27.195860 
	C27.962498,25.270470 25.940128,23.655478 24.183926,22.001154 
	C24.378204,21.912935 25.473719,21.415480 26.845776,20.634121 
z"/>
</svg>