<svg version="1.1" id="Layer_1" xmlns="http://www.w3.org/2000/svg" xmlns:xlink="http://www.w3.org/1999/xlink" x="0px" y="0px"
	 width="100%" viewBox="0 0 370 150" enable-background="new 0 0 370 150" xml:space="preserve">
<path fill="#000000" opacity="1.000000" stroke="none" 
	d="
M268.000000,1.000002 
	C302.318756,1.000000 336.637482,1.000000 370.978119,1.000000 
	C370.978119,50.964153 370.978119,100.928322 370.978119,150.946243 
	C247.754944,150.946243 124.509850,150.946243 1.132382,150.946243 
	C1.132382,101.109818 1.132382,51.219162 1.132382,1.000000 
	C86.353951,1.000000 171.708313,1.000000 257.504883,1.389911 
	C257.433990,2.139373 256.963196,2.718575 256.401672,2.826806 
	C234.079514,7.129227 219.039032,20.856871 207.995132,40.311378 
	C206.509003,43.401314 205.194397,46.181946 203.617249,49.217716 
	C201.569778,61.018723 199.775513,72.563156 198.007080,84.111549 
	C197.611496,86.694832 197.306610,89.291992 196.675385,91.685867 
	C193.708313,86.572060 191.361191,81.432114 188.271210,76.786240 
	C182.445175,68.026604 176.191269,59.551548 169.947998,50.673943 
	C168.534485,49.557941 167.288193,48.726204 166.037277,47.925240 
	C166.032669,47.956013 166.094162,47.946388 165.922729,47.654411 
	C163.484451,45.840542 161.217621,44.318653 158.937592,42.738892 
	C158.924408,42.681011 158.805695,42.682522 158.584061,42.377468 
	C146.493103,35.596817 134.281189,33.557270 121.216629,39.389755 
	C120.292168,39.998791 119.625237,40.441715 118.616005,40.961121 
	C111.052132,45.214821 106.098160,51.339298 102.621857,59.212456 
	C98.170181,70.179993 97.431961,81.015434 101.510353,91.912453 
	C105.541389,102.682930 115.604370,108.100456 123.429695,115.725273 
	C121.439804,116.004227 119.889366,115.705528 118.400558,115.218468 
	C105.839272,111.109009 93.308121,106.906723 80.731247,102.845879 
	C63.701981,97.347435 46.923473,97.912781 30.237078,105.374138 
	C29.212664,106.057556 28.432228,106.585205 27.278584,107.159737 
	C18.824186,111.865089 11.147811,117.027214 5.212244,123.652008 
	C12.071776,124.565468 18.638445,125.439926 25.373077,126.509117 
	C25.876886,126.752541 26.212732,126.801224 26.744457,127.100388 
	C33.466663,133.238037 32.924480,141.105164 32.168530,149.032181 
	C32.621330,149.115158 33.074135,149.198135 33.526936,149.281113 
	C35.388058,146.869461 37.249176,144.457825 39.370125,141.834717 
	C45.429466,132.162979 53.541153,125.550430 64.403107,121.838600 
	C69.042526,121.229408 73.429314,119.597679 77.496162,120.184242 
	C91.793304,122.246346 106.203659,124.207832 120.155273,127.815445 
	C139.413910,132.795364 158.465134,135.248627 177.956985,129.983475 
	C180.063507,129.414474 182.091599,128.555099 184.156052,127.830414 
	C184.174057,127.353424 184.192047,126.876427 184.210052,126.399437 
	C177.806915,123.988510 171.403778,121.577583 164.691223,118.995667 
	C161.604828,117.514771 158.827866,116.204865 155.838226,114.633728 
	C150.096741,110.875572 144.567932,107.378654 138.938385,103.680023 
	C138.653076,103.226845 138.412262,103.053482 137.947586,102.673515 
	C136.533005,101.553108 135.286041,100.717400 133.873627,99.596985 
	C131.141418,96.706841 128.444916,94.215179 126.037407,91.470085 
	C122.141068,87.027374 120.341568,82.005119 121.966568,75.970673 
	C123.810173,69.124451 128.206940,64.458878 134.391846,60.841988 
	C140.561310,57.978386 146.277283,59.045280 152.191528,61.393196 
	C154.258636,62.473297 156.110428,63.296562 158.136368,64.404510 
	C160.424469,66.518135 162.844254,68.095085 164.596756,70.221893 
	C170.558975,77.457619 176.511215,84.722198 182.048920,92.282204 
	C190.082840,103.250076 197.752411,114.484833 206.224091,126.524857 
	C206.450195,123.491493 206.641281,120.928192 206.886566,117.973770 
	C207.305908,110.178482 207.115829,102.695076 208.158569,95.387596 
	C209.996475,82.507721 212.024994,69.699493 218.788986,58.022301 
	C223.236160,50.344776 227.982712,43.318859 235.764679,38.865311 
	C239.026657,36.998520 242.604691,35.684002 246.490173,34.082050 
	C250.952911,34.409203 254.964508,34.772709 259.196655,35.394657 
	C260.461029,36.052044 261.504852,36.450985 262.740234,37.095421 
	C269.425995,42.262615 272.446594,48.652702 270.952026,56.823116 
	C270.449707,59.569084 269.584106,62.248592 268.621765,65.179253 
	C254.836212,85.693596 241.313416,105.987152 227.612122,126.548584 
	C231.899933,126.028046 236.116257,125.526802 240.329742,125.002678 
	C253.282440,123.391434 266.204193,121.433441 279.197632,120.285599 
	C286.615265,119.630318 294.310181,119.329697 301.597870,120.552483 
	C318.003052,123.305077 331.868958,131.768402 344.646820,142.115341 
	C345.687897,142.958344 346.913696,143.573227 348.681091,144.690887 
	C347.657623,134.992813 346.239319,126.059158 356.391724,120.842216 
	C360.185364,120.031502 363.591156,119.211906 367.329651,118.312241 
	C366.777863,117.292740 366.347992,116.498489 365.643921,115.459167 
	C360.263641,111.441269 355.157562,107.668449 349.820618,103.626328 
	C341.395203,99.344757 332.628998,97.039391 323.648315,98.180885 
	C307.942169,100.177246 292.373688,103.233307 276.702087,105.536369 
	C270.474792,106.451523 264.126556,106.543755 258.008423,106.718475 
	C266.549438,98.357079 275.017517,90.390495 283.258514,82.195618 
	C297.119598,68.412170 303.401276,52.138996 300.224457,32.329113 
	C298.119873,19.205378 289.354919,12.089911 278.804138,5.614480 
	C276.580750,4.674005 274.562256,4.096107 272.626770,3.312975 
	C271.033417,2.668278 269.538513,1.780211 268.000000,1.000002 
z"/>
<path fill="#582C4F" opacity="1.000000" stroke="none" 
	d="
M208.166656,40.002075 
	C219.039032,20.856871 234.079514,7.129227 256.401672,2.826806 
	C256.963196,2.718575 257.433990,2.139373 257.973541,1.389911 
	C261.030609,1.000000 264.061188,1.000000 267.545898,1.000002 
	C269.538513,1.780211 271.033417,2.668278 272.626770,3.312975 
	C274.562256,4.096107 276.580750,4.674005 278.555664,5.853361 
	C275.848694,6.510816 273.129395,6.939140 270.453613,6.750550 
	C259.757080,5.996656 248.862106,5.285850 240.058014,12.658749 
	C231.591248,19.749151 223.996979,27.872765 215.818298,35.321663 
	C213.647507,37.298763 210.737335,38.464046 208.166656,40.002075 
z"/>
<path fill="#582C4F" opacity="1.000000" stroke="none" 
	d="
M207.995132,40.311375 
	C210.737335,38.464046 213.647507,37.298763 215.818298,35.321663 
	C223.996979,27.872765 231.591248,19.749151 240.058014,12.658749 
	C248.862106,5.285850 259.757080,5.996656 270.453613,6.750550 
	C273.129395,6.939140 275.848694,6.510816 278.796448,6.127143 
	C289.354919,12.089911 298.119873,19.205378 300.224457,32.329113 
	C303.401276,52.138996 297.119598,68.412170 283.258514,82.195618 
	C275.017517,90.390495 266.549438,98.357079 257.812805,106.947418 
	C256.509247,111.947861 257.638794,113.152290 262.781952,112.300270 
	C277.715210,109.826431 292.608032,107.108932 307.536865,104.607475 
	C319.032043,102.681358 330.531128,100.913979 342.199554,103.682777 
	C344.693268,104.274521 347.427887,103.851288 350.051514,103.895630 
	C355.157562,107.668449 360.263641,111.441269 365.215118,115.549614 
	C362.041656,117.534546 359.022766,119.183952 356.003876,120.833344 
	C346.239319,126.059158 347.657623,134.992813 348.681091,144.690887 
	C346.913696,143.573227 345.687897,142.958344 344.646820,142.115341 
	C331.868958,131.768402 318.003052,123.305077 301.597870,120.552483 
	C294.310181,119.329697 286.615265,119.630318 279.197632,120.285599 
	C266.204193,121.433441 253.282440,123.391434 240.329742,125.002678 
	C236.116257,125.526802 231.899933,126.028046 227.612122,126.548584 
	C241.313416,105.987152 254.836212,85.693596 268.992249,65.131241 
	C271.514984,62.848869 274.344696,61.143570 275.124268,58.766045 
	C277.873138,50.382618 274.096558,43.327663 269.176208,36.868919 
	C267.244202,34.332806 264.766693,34.123909 262.548645,36.849930 
	C261.504852,36.450985 260.461029,36.052044 259.089539,35.094826 
	C256.352539,29.816261 249.917664,29.604774 246.039017,34.118401 
	C242.604691,35.684002 239.026657,36.998520 235.764679,38.865311 
	C227.982712,43.318859 223.236160,50.344776 218.788986,58.022301 
	C212.024994,69.699493 209.996475,82.507721 208.158569,95.387596 
	C207.115829,102.695076 207.305908,110.178482 206.506897,117.814705 
	C204.216782,116.062935 202.099564,114.259583 200.570923,112.049187 
	C198.700150,109.344070 197.597961,106.099670 195.680786,103.435837 
	C189.555405,94.924980 183.260330,86.534172 176.921921,78.179604 
	C173.705246,73.939743 170.513763,69.624870 166.813614,65.828606 
	C164.580307,63.537296 161.892334,59.407257 157.962234,64.119827 
	C156.110428,63.296562 154.258636,62.473297 152.047394,61.073891 
	C147.355087,53.822247 140.127762,53.959396 134.003815,60.833340 
	C128.206940,64.458878 123.810173,69.124451 121.966568,75.970673 
	C120.341568,82.005119 122.141068,87.027374 126.037407,91.470085 
	C128.444916,94.215179 131.141418,96.706841 134.031799,99.889824 
	C135.608704,101.297653 136.861954,102.127937 138.115219,102.958221 
	C138.412262,103.053482 138.653076,103.226845 139.082947,103.987602 
	C144.031738,109.363197 148.882828,113.992210 156.050888,114.894958 
	C158.827866,116.204865 161.604828,117.514771 164.842422,119.289810 
	C168.212326,121.727379 171.121628,123.699814 175.037582,126.354736 
	C172.596313,127.205757 171.187973,128.007980 169.711945,128.162140 
	C157.608078,129.426270 145.491531,130.011063 133.484497,127.350449 
	C117.419930,123.790741 101.437073,119.834221 85.305984,116.615082 
	C77.695435,115.096321 70.035316,115.751320 64.003761,121.833344 
	C53.541153,125.550430 45.429466,132.162979 39.118259,141.588531 
	C36.486027,137.088623 34.228470,132.681885 32.290241,128.138931 
	C30.855713,124.776581 29.222548,123.910988 26.548580,126.849907 
	C26.212732,126.801224 25.876886,126.752541 25.195110,126.173981 
	C22.789522,123.377068 20.729862,121.110039 18.360104,118.501686 
	C20.146992,116.858932 22.158434,115.379883 23.683414,113.505142 
	C25.253206,111.575294 26.348736,109.259666 27.651791,107.112846 
	C28.432228,106.585205 29.212664,106.057556 30.614094,105.585754 
	C33.810829,105.720985 36.398544,105.998894 38.960182,105.844383 
	C48.515186,105.268066 58.398762,102.666443 67.536652,104.302040 
	C83.441887,107.148926 98.892082,112.552216 114.517197,116.940193 
	C118.510841,118.061729 122.380722,119.793617 126.436089,120.448250 
	C128.240967,120.739601 130.364670,119.055840 132.343674,118.268555 
	C131.413177,116.512856 130.909012,114.203835 129.476288,113.099983 
	C124.096603,108.955154 117.989388,105.672867 112.987022,101.147430 
	C109.367378,97.872887 105.733246,93.521751 104.445244,88.986298 
	C101.626381,79.060211 103.194618,68.887741 106.245773,58.773659 
	C109.586166,55.125755 112.917419,51.882580 115.683510,48.213341 
	C117.253334,46.130955 117.897346,43.350639 118.958313,40.884644 
	C119.625237,40.441715 120.292168,39.998791 121.621811,39.610523 
	C124.880379,40.026531 127.466171,40.565929 130.074112,40.713184 
	C136.011200,41.048412 141.965302,41.089840 147.900406,41.449619 
	C151.547012,41.670666 155.171356,42.259068 158.805695,42.682522 
	C158.805695,42.682522 158.924408,42.681011 159.094421,43.056747 
	C161.541016,44.937115 163.817596,46.441750 166.094162,47.946388 
	C166.094162,47.946388 166.032669,47.956013 166.195694,48.218193 
	C167.610886,49.306320 168.863037,50.132263 170.115204,50.958206 
	C176.191269,59.551548 182.445175,68.026604 188.271210,76.786240 
	C191.361191,81.432114 193.708313,86.572060 196.900024,91.908630 
	C201.816956,94.656380 201.626282,91.182755 201.916275,88.635811 
	C203.158173,77.728569 204.440125,66.822418 205.390015,55.888283 
	C205.585297,53.640408 204.418671,51.274223 203.879791,48.962578 
	C205.194397,46.181946 206.509003,43.401314 207.995132,40.311375 
z"/>
<path fill="#582C4F" opacity="1.000000" stroke="none" 
	d="
M106.000000,59.000000 
	C103.194618,68.887741 101.626381,79.060211 104.445244,88.986298 
	C105.733246,93.521751 109.367378,97.872887 112.987022,101.147430 
	C117.989388,105.672867 124.096603,108.955154 129.476288,113.099983 
	C130.909012,114.203835 131.413177,116.512856 132.343674,118.268555 
	C130.364670,119.055840 128.240967,120.739601 126.436089,120.448250 
	C122.380722,119.793617 118.510841,118.061729 114.517197,116.940193 
	C98.892082,112.552216 83.441887,107.148926 67.536652,104.302040 
	C58.398762,102.666443 48.515186,105.268066 38.960182,105.844383 
	C36.398544,105.998894 33.810829,105.720985 30.858070,105.429977 
	C46.923473,97.912781 63.701981,97.347435 80.731247,102.845879 
	C93.308121,106.906723 105.839272,111.109009 118.400558,115.218468 
	C119.889366,115.705528 121.439804,116.004227 123.429695,115.725273 
	C115.604370,108.100456 105.541389,102.682930 101.510353,91.912453 
	C97.431961,81.015434 98.170181,70.179993 103.011261,59.218227 
	C104.442299,58.979923 105.221146,58.989964 106.000000,59.000000 
z"/>
<path fill="#582C4F" opacity="1.000000" stroke="none" 
	d="
M64.403107,121.838600 
	C70.035316,115.751320 77.695435,115.096321 85.305984,116.615082 
	C101.437073,119.834221 117.419930,123.790741 133.484497,127.350449 
	C145.491531,130.011063 157.608078,129.426270 169.711945,128.162140 
	C171.187973,128.007980 172.596313,127.205757 175.037582,126.354736 
	C171.121628,123.699814 168.212326,121.727379 165.151840,119.460800 
	C171.403778,121.577583 177.806915,123.988510 184.210052,126.399437 
	C184.192047,126.876427 184.174057,127.353424 184.156052,127.830414 
	C182.091599,128.555099 180.063507,129.414474 177.956985,129.983475 
	C158.465134,135.248627 139.413910,132.795364 120.155273,127.815445 
	C106.203659,124.207832 91.793304,122.246346 77.496162,120.184242 
	C73.429314,119.597679 69.042526,121.229408 64.403107,121.838600 
z"/>
<path fill="#582C4F" opacity="1.000000" stroke="none" 
	d="
M349.820618,103.626335 
	C347.427887,103.851288 344.693268,104.274521 342.199554,103.682777 
	C330.531128,100.913979 319.032043,102.681358 307.536865,104.607475 
	C292.608032,107.108932 277.715210,109.826431 262.781952,112.300270 
	C257.638794,113.152290 256.509247,111.947861 257.637756,107.239578 
	C264.126556,106.543755 270.474792,106.451523 276.702087,105.536369 
	C292.373688,103.233307 307.942169,100.177246 323.648315,98.180885 
	C332.628998,97.039391 341.395203,99.344757 349.820618,103.626335 
z"/>
<path fill="#582C4F" opacity="1.000000" stroke="none" 
	d="
M158.136368,64.404510 
	C161.892334,59.407257 164.580307,63.537296 166.813614,65.828606 
	C170.513763,69.624870 173.705246,73.939743 176.921921,78.179604 
	C183.260330,86.534172 189.555405,94.924980 195.680786,103.435837 
	C197.597961,106.099670 198.700150,109.344070 200.570923,112.049187 
	C202.099564,114.259583 204.216782,116.062935 206.452698,118.205818 
	C206.641281,120.928192 206.450195,123.491493 206.224091,126.524857 
	C197.752411,114.484833 190.082840,103.250076 182.048920,92.282204 
	C176.511215,84.722198 170.558975,77.457619 164.596756,70.221893 
	C162.844254,68.095085 160.424469,66.518135 158.136368,64.404510 
z"/>
<path fill="#582C4F" opacity="1.000000" stroke="none" 
	d="
M203.617249,49.217712 
	C204.418671,51.274223 205.585297,53.640408 205.390015,55.888283 
	C204.440125,66.822418 203.158173,77.728569 201.916275,88.635811 
	C201.626282,91.182755 201.816956,94.656380 197.184616,92.105522 
	C197.306610,89.291992 197.611496,86.694832 198.007080,84.111549 
	C199.775513,72.563156 201.569778,61.018723 203.617249,49.217712 
z"/>
<path fill="#582C4F" opacity="1.000000" stroke="none" 
	d="
M27.278584,107.159737 
	C26.348736,109.259666 25.253206,111.575294 23.683414,113.505142 
	C22.158434,115.379883 20.146992,116.858932 18.360104,118.501686 
	C20.729862,121.110039 22.789522,123.377068 25.027147,125.979233 
	C18.638445,125.439926 12.071776,124.565468 5.212244,123.652008 
	C11.147811,117.027214 18.824186,111.865089 27.278584,107.159737 
z"/>
<path fill="#582C4F" opacity="1.000000" stroke="none" 
	d="
M262.740234,37.095421 
	C264.766693,34.123909 267.244202,34.332806 269.176208,36.868919 
	C274.096558,43.327663 277.873138,50.382618 275.124268,58.766045 
	C274.344696,61.143570 271.514984,62.848869 269.255005,64.910461 
	C269.584106,62.248592 270.449707,59.569084 270.952026,56.823116 
	C272.446594,48.652702 269.425995,42.262615 262.740234,37.095421 
z"/>
<path fill="#582C4F" opacity="1.000000" stroke="none" 
	d="
M158.584061,42.377468 
	C155.171356,42.259068 151.547012,41.670666 147.900406,41.449619 
	C141.965302,41.089840 136.011200,41.048412 130.074112,40.713184 
	C127.466171,40.565929 124.880379,40.026531 121.879349,39.444416 
	C134.281189,33.557270 146.493103,35.596817 158.584061,42.377468 
z"/>
<path fill="#582C4F" opacity="1.000000" stroke="none" 
	d="
M26.744457,127.100388 
	C29.222548,123.910988 30.855713,124.776581 32.290241,128.138931 
	C34.228470,132.681885 36.486027,137.088623 38.858433,141.799988 
	C37.249176,144.457825 35.388058,146.869461 33.526936,149.281113 
	C33.074135,149.198135 32.621330,149.115158 32.168530,149.032181 
	C32.924480,141.105164 33.466663,133.238037 26.744457,127.100388 
z"/>
<path fill="#582C4F" opacity="1.000000" stroke="none" 
	d="
M106.245773,58.773659 
	C105.221146,58.989964 104.442299,58.979923 103.274033,58.964111 
	C106.098160,51.339298 111.052132,45.214821 118.616005,40.961121 
	C117.897346,43.350639 117.253334,46.130955 115.683510,48.213341 
	C112.917419,51.882580 109.586166,55.125755 106.245773,58.773659 
z"/>
<path fill="#582C4F" opacity="1.000000" stroke="none" 
	d="
M134.391846,60.841988 
	C140.127762,53.959396 147.355087,53.822247 151.832092,60.817055 
	C146.277283,59.045280 140.561310,57.978386 134.391846,60.841988 
z"/>
<path fill="#582C4F" opacity="1.000000" stroke="none" 
	d="
M155.838226,114.633728 
	C148.882828,113.992210 144.031738,109.363197 139.183670,104.189301 
	C144.567932,107.378654 150.096741,110.875572 155.838226,114.633728 
z"/>
<path fill="#582C4F" opacity="1.000000" stroke="none" 
	d="
M246.490173,34.082047 
	C249.917664,29.604774 256.352539,29.816261 258.868988,34.836380 
	C254.964508,34.772709 250.952911,34.409203 246.490173,34.082047 
z"/>
<path fill="#582C4F" opacity="1.000000" stroke="none" 
	d="
M356.391724,120.842224 
	C359.022766,119.183952 362.041656,117.534546 365.489319,115.794693 
	C366.347992,116.498489 366.777863,117.292740 367.329651,118.312241 
	C363.591156,119.211906 360.185364,120.031502 356.391724,120.842224 
z"/>
<path fill="#582C4F" opacity="1.000000" stroke="none" 
	d="
M165.922729,47.654408 
	C163.817596,46.441750 161.541016,44.937115 159.107605,43.114624 
	C161.217621,44.318653 163.484451,45.840542 165.922729,47.654408 
z"/>
<path fill="#582C4F" opacity="1.000000" stroke="none" 
	d="
M137.947586,102.673515 
	C136.861954,102.127937 135.608704,101.297653 134.197266,100.174530 
	C135.286041,100.717400 136.533005,101.553108 137.947586,102.673515 
z"/>
<path fill="#582C4F" opacity="1.000000" stroke="none" 
	d="
M169.947998,50.673943 
	C168.863037,50.132263 167.610886,49.306320 166.200302,48.187420 
	C167.288193,48.726204 168.534485,49.557941 169.947998,50.673943 
z"/>
</svg>